<svg width="20" height="20" viewBox="0 0 20 20" fill="none" xmlns="http://www.w3.org/2000/svg">
<path d="M10 1.66667C6.775 1.66667 4.16667 4.27501 4.16667 7.50001C4.16667 11.875 10 18.3333 10 18.3333C10 18.3333 15.8333 11.875 15.8333 7.50001C15.8333 4.27501 13.225 1.66667 10 1.66667ZM5.83333 7.50001C5.83333 5.20001 7.7 3.33334 10 3.33334C12.3 3.33334 14.1667 5.20001 14.1667 7.50001C14.1667 9.90001 11.7667 13.4917 10 15.7333C8.26667 13.5083 5.83333 9.87501 5.83333 7.50001Z" fill="#575E67"/>
<path d="M10 9.58334C11.1506 9.58334 12.0833 8.6506 12.0833 7.50001C12.0833 6.34941 11.1506 5.41667 10 5.41667C8.84941 5.41667 7.91667 6.34941 7.91667 7.50001C7.91667 8.6506 8.84941 9.58334 10 9.58334Z" fill="#575E67"/>
</svg>
