<svg width="108" height="32" viewBox="0 0 108 32" fill="none" xmlns="http://www.w3.org/2000/svg">
<path d="M25.1362 0.018533C28.4513 0.0185411 31.1387 2.74586 31.1387 6.11015V25.4935C31.1387 28.8578 28.4513 31.5851 25.1362 31.5851H6.03671C6.03349 31.5851 6.03023 31.585 6.02701 31.585H8.25739L12.6271 23.9218H27.9925L18.2897 6.90192L8.58687 23.9218L4.35523 31.3427C1.85862 30.6048 0.0342709 28.2654 0.034256 25.4935V6.11021C0.034256 2.74591 2.72164 0.018533 6.03671 0.018533H25.1362ZM61.0257 7.32684C62.4911 7.32684 63.7866 7.69283 64.914 8.42482C66.0636 9.15675 66.9539 10.1861 67.5844 11.5129C68.2383 12.8167 68.5647 14.3608 68.5647 16.1449C68.5647 17.9063 68.2383 19.4503 67.5844 20.777C66.9539 22.1037 66.0747 23.1331 64.9479 23.865C63.8204 24.597 62.5132 24.963 61.0257 24.963C59.6733 24.963 58.5013 24.6999 57.5096 24.1738C56.7615 23.7597 56.1417 23.2805 55.6501 22.7362V31.5851H51.8296V7.56705H55.2782L55.5486 9.69433C56.1121 9.03102 56.8447 8.47056 57.7463 8.01309C58.6478 7.55561 59.741 7.32684 61.0257 7.32684ZM99.8508 7.32684C101.451 7.32684 102.86 7.68134 104.077 8.39051C105.294 9.09963 106.241 10.0947 106.918 11.3756C107.616 12.6337 107.965 14.0977 107.965 15.7675C107.965 16.0419 107.954 16.3394 107.931 16.6596C107.908 16.957 107.874 17.2772 107.83 17.6203H95.7944C95.9064 18.4209 96.1546 19.1186 96.5376 19.7133C96.9433 20.2852 97.4501 20.7312 98.059 21.0514C98.6674 21.3718 99.3662 21.5318 100.155 21.5318C101.101 21.5318 101.947 21.3375 102.691 20.9486C103.457 20.5597 103.987 20.045 104.28 19.4045L107.627 20.5368C106.951 21.9093 105.948 22.9958 104.618 23.7964C103.288 24.5742 101.801 24.963 100.155 24.963C98.4648 24.963 96.9772 24.5855 95.6921 23.8307C94.4305 23.0758 93.4379 22.0237 92.7169 20.6741C92.0181 19.3245 91.6689 17.769 91.6689 16.0076C91.6689 14.3379 92.0181 12.851 92.7169 11.5472C93.4158 10.2434 94.3849 9.21405 95.625 8.45913C96.8645 7.70433 98.2733 7.32684 99.8508 7.32684ZM43.3318 7.32684C45.5407 7.32684 47.1974 7.88724 48.3018 9.00815C49.4063 10.129 49.9585 11.5587 49.9585 13.2971V24.7228H46.4423L46.1042 22.6298C45.5633 23.3618 44.9209 23.9222 44.1771 24.3111C43.4333 24.6999 42.4415 24.8944 41.2019 24.8944C40.0298 24.8944 39.0155 24.6999 38.159 24.3111C37.3026 23.8993 36.6376 23.339 36.1643 22.6298C35.7135 21.8978 35.488 21.0514 35.488 20.0907C35.488 18.6496 36.0066 17.4487 37.0433 16.4881C38.1026 15.5045 39.6466 14.8983 41.6752 14.6695L46.1042 14.1892V12.851C46.1042 12.302 45.8675 11.8102 45.3942 11.3756C44.9209 10.9182 44.1657 10.6894 43.129 10.6894C42.2274 10.6894 41.4386 10.9182 40.7624 11.3756C40.1087 11.8102 39.6691 12.4736 39.4438 13.3657L36.1304 12.1305C36.5587 10.6208 37.4039 9.44275 38.6662 8.59641C39.9509 7.75007 41.5061 7.32684 43.3318 7.32684ZM87.7024 10.9638L89.6795 7.56705H91.6578V10.9638H87.7024V18.581C87.7024 19.6104 87.8939 20.3309 88.2762 20.7427C88.6598 21.1315 89.1555 21.3489 89.7645 21.3946C90.3962 21.4175 91.0267 21.3832 91.6578 21.2916V24.5855C90.6887 24.7914 89.7306 24.8487 88.7842 24.7571C87.86 24.6885 87.0257 24.4369 86.2825 24.0023C85.5381 23.5448 84.9408 22.8815 84.4901 22.0123C84.0394 21.143 83.814 19.9993 83.814 18.581V10.9638H81.4471L83.814 7.56705V2.7634H87.7024V10.9638ZM73.5891 24.7228H69.7684V0.0184669H73.5891V24.7228ZM80.0506 24.7228H76.23V7.56705H80.0506V24.7228ZM3.18046 23.92H7.22086L16.9245 6.90305H12.8639L3.18046 23.92ZM42.0471 17.6889C41.1906 17.8034 40.5482 18.0549 40.12 18.4437C39.6917 18.8098 39.4776 19.2787 39.4776 19.8506C39.4776 20.3767 39.6805 20.8342 40.0862 21.223C40.5144 21.5891 41.0892 21.7721 41.8104 21.7721C42.7346 21.7721 43.5121 21.6005 44.1433 21.2573C44.7969 20.9143 45.2815 20.4224 45.5971 19.7819C45.9352 19.1415 46.1042 18.3523 46.1042 17.4144V17.1743L42.0471 17.6889ZM60.0791 10.8266C59.2677 10.8266 58.5239 11.0325 57.8477 11.4443C57.194 11.8559 56.6643 12.4507 56.2586 13.2284C55.8529 14.0061 55.6501 14.9783 55.6501 16.1449C55.6501 17.2887 55.8529 18.2608 56.2586 19.0614C56.6643 19.8392 57.194 20.4338 57.8477 20.8455C58.5239 21.2573 59.2677 21.4632 60.0791 21.4632C61.3638 21.4632 62.4116 20.9715 63.2232 19.9878C64.0575 19.0043 64.4743 17.7233 64.4743 16.1449C64.4743 14.5666 64.0575 13.2857 63.2232 12.3021C62.4116 11.3185 61.3638 10.8266 60.0791 10.8266ZM21.6074 19.8213H14.9719L18.281 13.9878L21.6074 19.8213ZM99.8508 10.6894C99.2197 10.6894 98.6224 10.8495 98.059 11.1697C97.4956 11.49 97.0104 11.936 96.6053 12.5079C96.2217 13.0569 95.9735 13.7088 95.8615 14.4636H103.807C103.784 13.7546 103.592 13.1141 103.232 12.5422C102.871 11.9703 102.398 11.5244 101.812 11.2041C101.226 10.861 100.572 10.6894 99.8508 10.6894ZM78.1566 0.0184669C78.8333 0.0184736 79.4078 0.258649 79.8819 0.739002C80.3542 1.21937 80.5912 1.81416 80.5912 2.52326C80.5912 3.18661 80.3542 3.75848 79.8819 4.23884C79.4078 4.71919 78.8333 4.95931 78.1566 4.95931C77.4584 4.95931 76.8722 4.71918 76.3987 4.23884C75.9258 3.75848 75.6894 3.18661 75.6894 2.52326C75.6894 1.81416 75.9258 1.21937 76.3987 0.739002C76.8722 0.258658 77.4584 0.0184669 78.1566 0.0184669Z" fill="#111A4A"/>
</svg>
